<?xml version="1.0" encoding="UTF-8" standalone="no"?>
<svg
   xmlns:osb="http://www.openswatchbook.org/uri/2009/osb"
   xmlns:dc="http://purl.org/dc/elements/1.1/"
   xmlns:cc="http://creativecommons.org/ns#"
   xmlns:rdf="http://www.w3.org/1999/02/22-rdf-syntax-ns#"
   xmlns:svg="http://www.w3.org/2000/svg"
   xmlns="http://www.w3.org/2000/svg"
   xmlns:sodipodi="http://sodipodi.sourceforge.net/DTD/sodipodi-0.dtd"
   xmlns:inkscape="http://www.inkscape.org/namespaces/inkscape"
   version="1.1"
   width="24"
   height="24"
   viewBox="0 0 24 24"
   id="svg4"
   sodipodi:docname="wpd4.svg"
   inkscape:version="0.92.1 r15371"
   inkscape:export-filename="C:\Users\torum\Desktop\path2-4.png"
   inkscape:export-xdpi="1024"
   inkscape:export-ydpi="1024">
  <metadata
     id="metadata10">
    <rdf:RDF>
      <cc:Work
         rdf:about="">
        <dc:format>image/svg+xml</dc:format>
        <dc:type
           rdf:resource="http://purl.org/dc/dcmitype/StillImage" />
        <dc:title></dc:title>
      </cc:Work>
    </rdf:RDF>
  </metadata>
  <defs
     id="defs8">
    <linearGradient
       id="linearGradient6135"
       osb:paint="solid">
      <stop
         style="stop-color:#000000;stop-opacity:1;"
         offset="0"
         id="stop6133" />
    </linearGradient>
    <linearGradient
       id="linearGradient6076"
       osb:paint="solid">
      <stop
         style="stop-color:#060808;stop-opacity:1;"
         offset="0"
         id="stop6074" />
    </linearGradient>
    <filter
       inkscape:collect="always"
       style="color-interpolation-filters:sRGB"
       id="filter6439"
       x="-0.072"
       width="1.144"
       y="-0.072"
       height="1.144">
      <feGaussianBlur
         inkscape:collect="always"
         stdDeviation="0.41180964"
         id="feGaussianBlur6441" />
    </filter>
    <filter
       inkscape:collect="always"
       style="color-interpolation-filters:sRGB"
       id="filter6526"
       x="-0.052335767"
       width="1.1046715"
       y="-0.070294116"
       height="1.1405882">
      <feGaussianBlur
         inkscape:collect="always"
         stdDeviation="0.3449803"
         id="feGaussianBlur6528" />
    </filter>
  </defs>
  <sodipodi:namedview
     pagecolor="#ffffff"
     bordercolor="#666666"
     borderopacity="1"
     objecttolerance="10"
     gridtolerance="10"
     guidetolerance="10"
     inkscape:pageopacity="0"
     inkscape:pageshadow="2"
     inkscape:window-width="1346"
     inkscape:window-height="1408"
     id="namedview6"
     showgrid="false"
     inkscape:zoom="19.666667"
     inkscape:cx="11.884238"
     inkscape:cy="13.312363"
     inkscape:window-x="1969"
     inkscape:window-y="323"
     inkscape:window-maximized="0"
     inkscape:current-layer="layer1" />
  <g
     inkscape:groupmode="layer"
     id="layer1"
     inkscape:label="Layer 1">
    <rect
       style="fill:none;fill-opacity:1;stroke:#000000;stroke-width:0;stroke-miterlimit:4;stroke-dasharray:none;stroke-dashoffset:0;stroke-opacity:1;filter:url(#filter6526)"
       id="rect6456"
       width="15.820017"
       height="11.778407"
       x="4.9434834"
       y="4.6968083"
       transform="matrix(1.1015039,0,0,1.1015039,-1.2180471,-2.3139722)" />
    <rect
       style="opacity:0.91000001;fill:#010101;fill-opacity:1;stroke:#000000;stroke-width:0;stroke-miterlimit:4;stroke-dasharray:none;stroke-dashoffset:0;stroke-opacity:1"
       id="rect4503"
       width="25.276072"
       height="26.282799"
       x="-1.4632968"
       y="26.199402"
       inkscape:export-filename="C:\Users\torum\Desktop\rect4503.png"
       inkscape:export-xdpi="1024"
       inkscape:export-ydpi="1024" />
    <path
       style="fill:#1974d0;fill-opacity:0.9375;stroke-width:0.47518972;filter:url(#filter6526)"
       d="m 10.229626,7.1913358 v 6.6526572 l 5.227088,-3.326329 z"
       id="path2-43"
       inkscape:connector-curvature="0"
       transform="matrix(1.1015039,0,0,1.1015039,-1.2180471,-2.3139722)" />
  </g>
  <path
     inkscape:connector-curvature="0"
     style="fill:#f6f6f6;fill-opacity:1;stroke:#121212;stroke-width:0.33;stroke-miterlimit:4;stroke-dasharray:none;stroke-opacity:1"
     d="m 11.978487,1.6918878 a 7.5603129,7.5603129 0 0 0 -7.559932,7.5599312 7.5603129,7.5603129 0 0 0 6.479941,7.473876 v 1.665164 H 9.7969922 a 1.1015039,1.1015039 0 0 0 -1.101504,1.101504 H 0.98496077 v 2.203008 H 8.6954882 a 1.1015039,1.1015039 0 0 0 1.101504,1.101504 h 4.4060158 a 1.1015039,1.1015039 0 0 0 1.101504,-1.101504 h 7.710527 V 19.492363 H 15.304512 A 1.1015039,1.1015039 0 0 0 14.203008,18.390859 H 13.101504 V 16.71709 A 7.5603129,7.5603129 0 0 0 19.538417,9.251819 7.5603129,7.5603129 0 0 0 11.978487,1.6918878 Z M 10.46607,5.8483439 15.001168,9.251819 10.46607,12.653143 Z"
     id="path2" />
  <path
     id="path2-4-8"
     style="fill:#efefef;fill-opacity:0.01442309;stroke:#000000;stroke-width:0.1;stroke-miterlimit:4;stroke-dasharray:0.025, 0.025;stroke-dashoffset:0;stroke-opacity:1;filter:url(#filter6439)"
     d="m -54.023403,0.64914938 a 6.8636278,6.8636278 0 0 0 -6.863493,6.86349402 6.8636278,6.8636278 0 0 0 6.863493,6.8634936 6.8636278,6.8636278 0 0 0 6.863495,-6.8634936 6.8636278,6.8636278 0 0 0 -6.863495,-6.86349402 z m -1.373227,3.77505402 4.11836,3.08844 -4.11836,3.0884406 z"
     inkscape:connector-curvature="0"
     inkscape:export-xdpi="96"
     inkscape:export-ydpi="96" />
  <path
     inkscape:connector-curvature="0"
     d="M 6.4718246,-61.936077 A 13.595458,13.595458 0 0 1 20.06728,-48.340619 13.595458,13.595458 0 0 1 6.4718246,-34.745161 13.595458,13.595458 0 0 1 -7.1236334,-48.340619 13.595458,13.595458 0 0 1 6.4718246,-61.936077 Z m 5.4381834,13.595458 -8.1572744,-6.117956 v 12.235912"
     id="path2-4"
     style="stroke-width:1.35954583" />
</svg>
