<?xml version="1.0" encoding="UTF-8" standalone="no"?>
<!-- Created with Inkscape (http://www.inkscape.org/) -->

<svg
   xmlns:dc="http://purl.org/dc/elements/1.1/"
   xmlns:cc="http://creativecommons.org/ns#"
   xmlns:rdf="http://www.w3.org/1999/02/22-rdf-syntax-ns#"
   xmlns:svg="http://www.w3.org/2000/svg"
   xmlns="http://www.w3.org/2000/svg"
   xmlns:sodipodi="http://sodipodi.sourceforge.net/DTD/sodipodi-0.dtd"
   xmlns:inkscape="http://www.inkscape.org/namespaces/inkscape"
   width="400"
   height="400"
   viewBox="0 0 105.83333 105.83334"
   version="1.1"
   id="svg8"
   inkscape:version="0.92.1 r15371"
   sodipodi:docname="icon.svg"
   inkscape:export-filename="C:\Users\torum\Desktop\bitmap.png"
   inkscape:export-xdpi="96"
   inkscape:export-ydpi="96">
  <defs
     id="defs2" />
  <sodipodi:namedview
     id="base"
     pagecolor="#ffffff"
     bordercolor="#666666"
     borderopacity="1.0"
     inkscape:pageopacity="0.0"
     inkscape:pageshadow="2"
     inkscape:zoom="0.175"
     inkscape:cx="-700.58774"
     inkscape:cy="102.85714"
     inkscape:document-units="mm"
     inkscape:current-layer="layer1"
     showgrid="false"
     units="px"
     inkscape:window-width="1457"
     inkscape:window-height="1609"
     inkscape:window-x="1775"
     inkscape:window-y="137"
     inkscape:window-maximized="0" />
  <metadata
     id="metadata5">
    <rdf:RDF>
      <cc:Work
         rdf:about="">
        <dc:format>image/svg+xml</dc:format>
        <dc:type
           rdf:resource="http://purl.org/dc/dcmitype/StillImage" />
        <dc:title></dc:title>
      </cc:Work>
    </rdf:RDF>
  </metadata>
  <g
     inkscape:label="Layer 1"
     inkscape:groupmode="layer"
     id="layer1"
     transform="translate(0,-191.16665)">
    <path
       style="opacity:0.825;fill:#e2ebfa;fill-opacity:1;stroke:#000000;stroke-width:2.97611165;stroke-miterlimit:4;stroke-dasharray:none;stroke-opacity:0.51442309"
       d="M 53.823864,196.04415 A 49.248835,49.248835 0 0 0 4.5749102,245.29248 49.248835,49.248835 0 0 0 53.823864,294.54143 49.248835,49.248835 0 0 0 103.07281,245.29248 49.248835,49.248835 0 0 0 53.823864,196.04415 Z m 0,9.84942 c 21.718746,0 39.398909,17.68021 39.398909,39.39891 0,21.71887 -17.680163,39.39954 -39.398909,39.39954 -21.718727,0 -39.398912,-17.68067 -39.398912,-39.39954 0,-21.7187 17.680185,-39.39891 39.398912,-39.39891 z m -9.850044,17.2371 v 44.32425 l 29.549501,-22.16244 z"
       id="path2"
       inkscape:connector-curvature="0" />
  </g>
</svg>
