<?xml version="1.0" encoding="UTF-8" standalone="no"?>
<svg
   xmlns:osb="http://www.openswatchbook.org/uri/2009/osb"
   xmlns:dc="http://purl.org/dc/elements/1.1/"
   xmlns:cc="http://creativecommons.org/ns#"
   xmlns:rdf="http://www.w3.org/1999/02/22-rdf-syntax-ns#"
   xmlns:svg="http://www.w3.org/2000/svg"
   xmlns="http://www.w3.org/2000/svg"
   xmlns:sodipodi="http://sodipodi.sourceforge.net/DTD/sodipodi-0.dtd"
   xmlns:inkscape="http://www.inkscape.org/namespaces/inkscape"
   version="1.1"
   width="24"
   height="24"
   viewBox="0 0 24 24"
   id="svg4"
   sodipodi:docname="wpd2.svg"
   inkscape:version="0.92.1 r15371"
   inkscape:export-filename="C:\Users\torum\Desktop\path2-4.png"
   inkscape:export-xdpi="1024"
   inkscape:export-ydpi="1024">
  <metadata
     id="metadata10">
    <rdf:RDF>
      <cc:Work
         rdf:about="">
        <dc:format>image/svg+xml</dc:format>
        <dc:type
           rdf:resource="http://purl.org/dc/dcmitype/StillImage" />
        <dc:title></dc:title>
      </cc:Work>
    </rdf:RDF>
  </metadata>
  <defs
     id="defs8">
    <linearGradient
       id="linearGradient6135"
       osb:paint="solid">
      <stop
         style="stop-color:#000000;stop-opacity:1;"
         offset="0"
         id="stop6133" />
    </linearGradient>
    <linearGradient
       id="linearGradient6076"
       osb:paint="solid">
      <stop
         style="stop-color:#060808;stop-opacity:1;"
         offset="0"
         id="stop6074" />
    </linearGradient>
    <filter
       inkscape:collect="always"
       style="color-interpolation-filters:sRGB"
       id="filter6439"
       x="-0.072"
       width="1.144"
       y="-0.072"
       height="1.144">
      <feGaussianBlur
         inkscape:collect="always"
         stdDeviation="0.41180964"
         id="feGaussianBlur6441" />
    </filter>
    <filter
       inkscape:collect="always"
       style="color-interpolation-filters:sRGB"
       id="filter6526"
       x="-0.052335767"
       width="1.1046715"
       y="-0.070294116"
       height="1.1405882">
      <feGaussianBlur
         inkscape:collect="always"
         stdDeviation="0.3449803"
         id="feGaussianBlur6528" />
    </filter>
  </defs>
  <sodipodi:namedview
     pagecolor="#ffffff"
     bordercolor="#666666"
     borderopacity="1"
     objecttolerance="10"
     gridtolerance="10"
     guidetolerance="10"
     inkscape:pageopacity="0"
     inkscape:pageshadow="2"
     inkscape:window-width="1346"
     inkscape:window-height="1408"
     id="namedview6"
     showgrid="false"
     inkscape:zoom="4.9166667"
     inkscape:cx="-38.599516"
     inkscape:cy="37.208854"
     inkscape:window-x="1996"
     inkscape:window-y="378"
     inkscape:window-maximized="0"
     inkscape:current-layer="layer1" />
  <g
     id="g6470">
    <path
       id="path2"
       d="M 11.980469 3.6367188 A 6.8636278 6.8636278 0 0 0 5.1171875 10.5 A 6.8636278 6.8636278 0 0 0 11 17.285156 L 11 18.796875 L 10 18.796875 A 1 1 0 0 0 9 19.796875 L 2 19.796875 L 2 21.796875 L 9 21.796875 A 1 1 0 0 0 10 22.796875 L 14 22.796875 A 1 1 0 0 0 15 21.796875 L 22 21.796875 L 22 19.796875 L 15 19.796875 A 1 1 0 0 0 14 18.796875 L 13 18.796875 L 13 17.277344 A 6.8636278 6.8636278 0 0 0 18.84375 10.5 A 6.8636278 6.8636278 0 0 0 11.980469 3.6367188 z M 10.607422 7.4101562 L 14.724609 10.5 L 10.607422 13.587891 L 10.607422 7.4101562 z "
       style="fill:#060708;fill-opacity:0.99519229" />
    <path
       inkscape:export-ydpi="96"
       inkscape:export-xdpi="96"
       inkscape:connector-curvature="0"
       d="M 11.980649,3.6351022 A 6.8636278,6.8636278 0 0 0 5.1171561,10.498596 6.8636278,6.8636278 0 0 0 11.980649,17.36209 6.8636278,6.8636278 0 0 0 18.844144,10.498596 6.8636278,6.8636278 0 0 0 11.980649,3.6351022 Z m -1.373227,3.775054 4.11836,3.0884398 -4.11836,3.088441 z"
       style="fill:#010101;fill-opacity:1;stroke:#000000;stroke-width:0.1;stroke-miterlimit:4;stroke-dasharray:0.025, 0.02500000000000000;stroke-opacity:1;stroke-dashoffset:0;filter:url(#filter6439)"
       id="path2-4-8" />
  </g>
  <path
     inkscape:connector-curvature="0"
     d="M 6.4718246,-61.936077 A 13.595458,13.595458 0 0 1 20.06728,-48.340619 13.595458,13.595458 0 0 1 6.4718246,-34.745161 13.595458,13.595458 0 0 1 -7.1236334,-48.340619 13.595458,13.595458 0 0 1 6.4718246,-61.936077 Z m 5.4381834,13.595458 -8.1572744,-6.117956 v 12.235912"
     id="path2-4"
     style="stroke-width:1.35954583" />
  <g
     inkscape:groupmode="layer"
     id="layer1"
     inkscape:label="Layer 1">
    <path
       style="fill:#ffffff;fill-opacity:0.75;stroke-width:0.47518972;filter:url(#filter6526)"
       d="m 10.229626,7.1913358 v 6.6526572 l 5.227088,-3.326329 z"
       id="path2-43"
       inkscape:connector-curvature="0" />
    <rect
       style="fill:none;fill-opacity:1;stroke:#000000;stroke-width:0;stroke-miterlimit:4;stroke-dasharray:none;stroke-dashoffset:0;stroke-opacity:1;filter:url(#filter6526)"
       id="rect6456"
       width="15.820017"
       height="11.778407"
       x="4.9434834"
       y="4.6968083" />
  </g>
</svg>
